<svg xmlns="http://www.w3.org/2000/svg" viewBox="0 0 500 500"><g id="freepik--background-complete--inject-40"><path d="M438.37,262.58c-5.28,0-137-.92-174.15-.92-2.6,0,.69-4.5,2.12-4.82,4.57-1,9.34-1,14-1.53A46,46,0,0,0,293.65,252c3.66-1.55,7.32-3.33,11.28-3.95,7.66-1.2,14.38,2.95,21.57,4.78A16.31,16.31,0,0,0,339.57,251c3.32-2,6.34-4.39,9.81-6.15a53.9,53.9,0,0,1,43-2,50.33,50.33,0,0,1,9.41,4.82c3.51,2.3,6.54,5.25,10.06,7.52,7.8,5.05,17.44,3.41,25.95,6.3C438.3,261.7,438.83,262.58,438.37,262.58Z" style="fill:#ebebeb"></path><path d="M179.93,110.62c-7,0-124.37.77-131.75.54-.53,0-.82-.8-.29-1.06,4.65-2.3,9.93-1.84,14.76-3.47,2.84-1,4.59-2.82,6.56-4.95a13.8,13.8,0,0,1,6.11-4,12.93,12.93,0,0,1,6.65-.2c2.39.56,4.45,1.93,6.73,2.79,5.64,2.13,11.12.1,15.14-4.07,3.33-3.44,6.59-6.69,11.1-8.54a14.78,14.78,0,0,1,11.77-.16c4.3,1.95,7.26,5.87,11.3,8.23,4.8,2.81,10.53,2.14,15.83,3s9.36,5.3,14,7.87a9.88,9.88,0,0,0,5.07,1.57c1,0,2.05-.31,3.08-.43,1.6-.2,3.12-.16,4.19,1.18C180.44,109.24,180.39,110.62,179.93,110.62Z" style="fill:#ebebeb"></path><path d="M424.18,137.91c-5.1,0-90.81.57-96.2.39-.38,0-.59-.58-.21-.77,3.4-1.68,7.25-1.34,10.78-2.53,2.08-.7,3.35-2.06,4.79-3.61a10,10,0,0,1,4.46-2.92,9.43,9.43,0,0,1,4.86-.15,42,42,0,0,1,4.91,2c4.11,1.55,8.12.08,11.05-3,2.43-2.51,4.81-4.88,8.11-6.23a10.74,10.74,0,0,1,8.59-.12c3.14,1.42,5.3,4.29,8.25,6,3.5,2,7.69,1.56,11.55,2.18S412,133.1,415.35,135a7.18,7.18,0,0,0,3.7,1.14,21.75,21.75,0,0,0,2.25-.32,3.08,3.08,0,0,1,3.06.87C424.55,136.91,424.51,137.91,424.18,137.91Z" style="fill:#ebebeb"></path><path d="M169.11,203.82c-5.1,0-90.81.56-96.2.39-.38,0-.59-.58-.21-.77,3.4-1.68,7.25-1.34,10.78-2.53,2.08-.7,3.35-2.06,4.79-3.62a10,10,0,0,1,4.46-2.91,9.43,9.43,0,0,1,4.86-.15,40.34,40.34,0,0,1,4.91,2c4.12,1.55,8.12.07,11.06-3,2.42-2.51,4.8-4.88,8.1-6.24a10.78,10.78,0,0,1,8.59-.12c3.14,1.43,5.3,4.29,8.25,6,3.5,2,7.69,1.56,11.55,2.18s6.84,3.87,10.23,5.74A7.22,7.22,0,0,0,164,202c.76,0,1.5-.23,2.25-.32a3.09,3.09,0,0,1,3.06.86C169.48,202.81,169.44,203.82,169.11,203.82Z" style="fill:#ebebeb"></path><path d="M258.32,168.85c-.1.28-135.09,0-133.39,0,.78,0-1.18-1.17-.42-1.54,4.4-2.18,9.21-2.24,14-2.68a21.52,21.52,0,0,0,8.17-2c2.55-1.33,4.13-3.64,5.94-5.78a25.37,25.37,0,0,1,23-8.73c9.6,1.5,17.17,8.81,26.78,10.16,5.78.81,11.24-1.43,16.89-2.22A20.68,20.68,0,0,1,232,158.39c3.05,1.51,5.86,2.78,9.3,3,2.65.19,5.3-.11,7.95-.14a17.8,17.8,0,0,1,11.69,4.67C261.37,166.32,262.73,168.85,258.32,168.85Z" style="fill:#ebebeb"></path><path d="M359.19,76.34a40.32,40.32,0,0,1,12.66,0,40.32,40.32,0,0,1-12.66,0Z" style="fill:#ebebeb"></path><path d="M391.31,56.82a87.58,87.58,0,0,1-.5-9.83,83.15,83.15,0,0,1,.5-9.84,83.15,83.15,0,0,1,.5,9.84A87.58,87.58,0,0,1,391.31,56.82Z" style="fill:#ebebeb"></path><path d="M381.57,59.44a36.28,36.28,0,0,1-3.64-5.29,37.12,37.12,0,0,1-2.77-5.79,36.28,36.28,0,0,1,3.64,5.29A37.55,37.55,0,0,1,381.57,59.44Z" style="fill:#ebebeb"></path><path d="M374.44,66.59a87,87,0,0,1-8.76-4.48,85.11,85.11,0,0,1-8.27-5.35,96.11,96.11,0,0,1,17,9.83Z" style="fill:#ebebeb"></path><path d="M410.84,76.28a35.55,35.55,0,0,1,6.33-.5,34.64,34.64,0,0,1,6.33.5,35.55,35.55,0,0,1-6.33.5A36.51,36.51,0,0,1,410.84,76.28Z" style="fill:#ebebeb"></path><path d="M408.21,66.54a97,97,0,0,1,17-9.84A83.27,83.27,0,0,1,417,62.05,85,85,0,0,1,408.21,66.54Z" style="fill:#ebebeb"></path><path d="M401.06,59.41a41,41,0,0,1,6.38-11,35.94,35.94,0,0,1-2.75,5.77A35.6,35.6,0,0,1,401.06,59.41Z" style="fill:#ebebeb"></path><path d="M391.34,95.85a83,83,0,0,1,.5,9.83,83,83,0,0,1-.5,9.83,96.88,96.88,0,0,1,0-19.66Z" style="fill:#ebebeb"></path><path d="M401.09,93.22a37.11,37.11,0,0,1,3.63,5.3,36.69,36.69,0,0,1,2.77,5.79,40.55,40.55,0,0,1-6.4-11.09Z" style="fill:#ebebeb"></path><path d="M408.21,86.07a98.77,98.77,0,0,1,17,9.83,83.13,83.13,0,0,1-8.77-4.48A85,85,0,0,1,408.21,86.07Z" style="fill:#ebebeb"></path><path d="M374.44,86.13a85,85,0,0,1-8.26,5.35A85.07,85.07,0,0,1,357.41,96a85.11,85.11,0,0,1,8.27-5.35A87,87,0,0,1,374.44,86.13Z" style="fill:#ebebeb"></path><path d="M381.59,93.25a41.22,41.22,0,0,1-6.38,11.06A35.26,35.26,0,0,1,378,98.53,35.81,35.81,0,0,1,381.59,93.25Z" style="fill:#ebebeb"></path><circle cx="391.33" cy="76.33" r="15.61" style="fill:#ebebeb"></circle></g><g id="freepik--Floor--inject-40"><polygon points="34.95 470.99 88.71 470.75 142.48 470.66 250 470.49 357.52 470.66 411.29 470.75 465.05 470.99 411.29 471.24 357.52 471.33 250 471.49 142.48 471.32 88.71 471.24 34.95 470.99" style="fill:#263238"></polygon></g><g id="freepik--Trees--inject-40"><path d="M143.74,273.9s-.5,46.09,14.81,95.43c8.82,28.45,27.34,58,42.82,80.4H175.62s-22.21-55-27.13-79.77c-11-55.14-6.68-96.85-6.68-96.85Z" style="fill:#4DABBA"></path><path d="M143.74,273.9s-.5,46.09,14.81,95.43c8.82,28.45,27.34,58,42.82,80.4H175.62s-22.21-55-27.13-79.77c-11-55.14-6.68-96.85-6.68-96.85Z" style="opacity:0.30000000000000004"></path><path d="M168.92,432.55l.22.6q1.88,0,3.75-.06c2.14,0,4.28-.11,6.43-.24-2.15-.13-4.29-.19-6.43-.24C171.57,432.58,170.24,432.56,168.92,432.55Z" style="fill:#4DABBA"></path><path d="M171.18,423.07c1.07.06,2.14.1,3.22.15l3.21.08c2.14.07,4.29.07,6.43.08h.18c-.13-.21-.26-.42-.38-.63-2.08,0-4.15,0-6.23.08l-3.21.08C173.32,423,172.25,423,171.18,423.07Z" style="fill:#4DABBA"></path><path d="M174.51,418.9c1.07.07,2.15.1,3.22.15l3.21.09.75,0-.3-.51h-.45l-3.21.09C176.66,418.8,175.58,418.83,174.51,418.9Z" style="fill:#4DABBA"></path><path d="M155.45,394.87c0,.13.08.25.13.37,1.42,0,2.83-.09,4.25-.18C158.37,395,156.91,394.92,155.45,394.87Z" style="fill:#4DABBA"></path><path d="M153.63,389.16c.05.19.12.37.18.56l2.1,0c2.14-.05,4.28-.11,6.42-.24-2.14-.13-4.28-.19-6.42-.24Z" style="fill:#4DABBA"></path><path d="M147.24,363.34a2,2,0,0,0,.06.35c1.29,0,2.6-.09,3.89-.17C149.87,363.44,148.56,363.39,147.24,363.34Z" style="fill:#4DABBA"></path><path d="M144.53,338.1l3.21.15,2.95.08-.09-.46-2.86.08C146.67,338,145.6,338,144.53,338.1Z" style="fill:#4DABBA"></path><path d="M141.56,315.12c0,.07,0,.14,0,.2l1.91-.1Z" style="fill:#4DABBA"></path><path d="M147,335c1,.07,2.06.1,3.09.15l-.06-.3C149,334.9,148,334.93,147,335Z" style="fill:#4DABBA"></path><path d="M176.05,244.4l-7.7-1.86,6.84,4.73a30.8,30.8,0,0,1-5.06,9.18l-7.7-3.45,5.44,6a32.74,32.74,0,0,1-2.79,2.53l-4.53-2.26,2.54,3.76a42.92,42.92,0,0,1-6.32,3.69l-3.67-4.08,2.09,4.8a66.86,66.86,0,0,1-13.49,4.15l31.83-55.28a51.14,51.14,0,0,1,3.28,13l-3.37-.05,3.56,1.86c.12,1.42.18,2.89.16,4.41l-8-.83,7.79,4.51A37.72,37.72,0,0,1,176.05,244.4Z" style="fill:#455a64"></path><path d="M187.63,272.78l-2.91-3.5,1.52,4.8a24.35,24.35,0,0,1-5.17,3.44l-3.39-6.44.27,7.72a27.58,27.58,0,0,1-3.53.89l-2.23-4.64-.2,5a33.47,33.47,0,0,1-6.31-.06l-1.21-8.08-2.1,7.61c-1.06-.2-2.15-.44-3.28-.73v-5.31l-2.8,4.5a77.14,77.14,0,0,1-14.36-6.41l52-8.69A27.24,27.24,0,0,1,187.63,272.78Z" style="fill:#37474f"></path><path d="M141.92,271.63a90.7,90.7,0,0,1-11.83-15.45l5.67-3.37L128.82,254a60.51,60.51,0,0,1-2.74-5.64l5.78-3.82-7,.75a48.87,48.87,0,0,1-1.45-4.73l10-3.63-11.08-1.72a43.62,43.62,0,0,1-.19-10.36h0l13.08-2.95-12.29-2c.18-.88.4-1.75.64-2.59l7.07.27-6.34-2.64a47.5,47.5,0,0,1,2.5-6L137,211l-8.47-5.18a53.41,53.41,0,0,1,11.58-14Z" style="fill:#37474f"></path><path d="M123.27,264.46l2.16-5.62-4.51,4.38h0c-.87-.47-1.75-1-2.62-1.49l2.35-3.9-3.72,3.06c-1.4-.88-2.79-1.82-4.14-2.81l3.6-4.67-5.89,2.89a45.69,45.69,0,0,1-6.76-6.72l7.29-6L101.85,247a31.27,31.27,0,0,1-3.51-6.86l7.2-4.76-8.06,2a28.5,28.5,0,0,1-.72-4.08l10.81-4.8-10.85-.65a34.3,34.3,0,0,1,.93-5.51l7.77-.48-7-2.13a53.19,53.19,0,0,1,5.49-11.6s10.93,43.08,38,63.48A97.83,97.83,0,0,1,123.27,264.46Z" style="fill:#455a64"></path><path d="M127.77,276.66,126.48,274l.47,2.8c-.78.1-1.55.16-2.29.19l-.9-3.57-1,3.59a26.69,26.69,0,0,1-3.17-.28l.5-5.91-2.86,5.41a23.25,23.25,0,0,1-6.17-2.61l1-4.51-2.37,3.59a25,25,0,0,1-2.2-1.73l2.91-4.84-4.47,3.38a33.1,33.1,0,0,1-3.28-3.88l2.6-2.92L102,264.64c-.35-.52-.68-1-1-1.52l1.76-1.61-2.33.64A38.4,38.4,0,0,1,97,254.61c14.56,14.23,45,17,45,17A43.94,43.94,0,0,1,127.77,276.66Z" style="fill:#37474f"></path><path d="M167.77,293.17l-.78-2.48-.31,2.59a21.06,21.06,0,0,1-3,0L164,289l-1.71,4.14a19.38,19.38,0,0,1-4.37-1.15l.65-4.22-2.7,3.3a21.08,21.08,0,0,1-2.64-1.64l1.76-3.22-2.79,2.43a22.65,22.65,0,0,1-1.89-1.7l2.45-3.88-4.34,1.81c-.57-.7-1.14-1.44-1.7-2.24l2.07-1.78-2.71.82a51.06,51.06,0,0,1-5-10.2s18.87,16.2,34.9,19.26A23.37,23.37,0,0,1,167.77,293.17Z" style="fill:#455a64"></path><path d="M133.89,288.74l-2.8-2.76,1.65,3.92a17.32,17.32,0,0,1-2.66,2l-2.36-2.21,1.28,2.83a13.86,13.86,0,0,1-1.42.65L125,289.3l.74,4.52a17.23,17.23,0,0,1-4.72.53l-1.43-3.28-.17,3.16c-.73-.08-1.43-.2-2.1-.34l-.51-3.2-.7,2.9a24.39,24.39,0,0,1-6.4-2.72c17.08-2.3,31.78-17.59,31.78-17.59C139.52,280.59,136.85,285.51,133.89,288.74Z" style="fill:#455a64"></path><path d="M149.24,283.71a6.39,6.39,0,1,1-4.93-7.58A6.39,6.39,0,0,1,149.24,283.71Z" style="fill:#4DABBA"></path><path d="M149.24,283.71a6.39,6.39,0,1,1-4.93-7.58A6.39,6.39,0,0,1,149.24,283.71Z" style="opacity:0.4"></path><path d="M145,277a6.4,6.4,0,1,1-4.94-7.58A6.41,6.41,0,0,1,145,277Z" style="fill:#4DABBA"></path><path d="M145,277a6.4,6.4,0,1,1-4.94-7.58A6.41,6.41,0,0,1,145,277Z" style="opacity:0.30000000000000004"></path><path d="M151.51,277.21a6.39,6.39,0,1,1-4.93-7.58A6.39,6.39,0,0,1,151.51,277.21Z" style="fill:#4DABBA"></path><path d="M151.51,277.21a6.39,6.39,0,1,1-4.93-7.58A6.39,6.39,0,0,1,151.51,277.21Z" style="opacity:0.2"></path><path d="M87.18,319.2A205.77,205.77,0,0,0,101.27,390c8.4,21.13,62.1,43,76.84,59.69H153.59s-57.22-40.85-61.9-59.21c-10.42-40.94-6.36-71.9-6.36-71.9Z" style="fill:#4DABBA"></path><path d="M87.18,319.2A205.77,205.77,0,0,0,101.27,390c8.4,21.13,62.1,43,76.84,59.69H153.59s-57.22-40.85-61.9-59.21c-10.42-40.94-6.36-71.9-6.36-71.9Z" style="opacity:0.30000000000000004"></path><path d="M136.71,437l.56.44,2.9,0c2,0,4.09-.09,6.12-.18-2-.1-4.08-.14-6.12-.18Z" style="fill:#4DABBA"></path><path d="M141.2,429.93c1,.06,2,.08,3.05.13l3.06.05c1.31,0,2.63,0,3.95.05-.25-.15-.49-.29-.73-.45-1.07,0-2.14,0-3.22.05l-3.06.06C143.23,429.86,142.21,429.88,141.2,429.93Z" style="fill:#4DABBA"></path><path d="M148.07,431.5l3.06.12,2.57.06-.53-.34-2,.05Z" style="fill:#4DABBA"></path><path d="M104.77,409a3.07,3.07,0,0,0,.25.26c1.22,0,2.43-.07,3.65-.12C107.38,409.08,106.07,409.05,104.77,409Z" style="fill:#4DABBA"></path><path d="M100.85,404.78c.11.12.23.26.33.39l.92,0c2,0,4.07-.08,6.11-.18-2-.09-4.07-.13-6.11-.17Z" style="fill:#4DABBA"></path><path d="M90.5,385.6l.06.26c1.23,0,2.47-.07,3.71-.13C93,385.68,91.76,385.63,90.5,385.6Z" style="fill:#4DABBA"></path><path d="M87.93,366.86c1,.05,2,.07,3,.11l2.81.06-.09-.34-2.72.06C90,366.78,88.94,366.81,87.93,366.86Z" style="fill:#4DABBA"></path><path d="M85.1,349.81a.61.61,0,0,1,0,.14l1.83-.07C86.33,349.85,85.71,349.82,85.1,349.81Z" style="fill:#4DABBA"></path><path d="M90.26,364.56c1,.05,2,.08,2.93.11a1.42,1.42,0,0,0,0-.22C92.18,364.49,91.22,364.51,90.26,364.56Z" style="fill:#4DABBA"></path><path d="M105.14,290.75l-6.26.05,6.15,2.32a24.14,24.14,0,0,1-2.11,8L96.35,300l5.32,3.54A23.31,23.31,0,0,1,100,306l-3.9-.86,2.67,2.4a34.65,34.65,0,0,1-4.14,4l-3.59-2.42,2.52,3.27A52.62,52.62,0,0,1,84,318.19l13.8-48.51a40.42,40.42,0,0,1,5,9.32l-2.6.6,3.09.75a34.66,34.66,0,0,1,1,3.35l-6.28.9,6.83,2A28.69,28.69,0,0,1,105.14,290.75Z" style="fill:#455a64"></path><path d="M119.47,310.29l-2.9-2.13,2.09,3.4a19.48,19.48,0,0,1-3.31,3.63l-3.84-4.29,1.7,5.87a19.65,19.65,0,0,1-2.54,1.35L108.06,315l.81,3.86A26.12,26.12,0,0,1,104,320l-2.48-6-.15,6.23c-.85.06-1.74.09-2.66.08l-1-4.07-1.28,4a61.09,61.09,0,0,1-12.25-2.16l38.22-16.64A21.51,21.51,0,0,1,119.47,310.29Z" style="fill:#37474f"></path><path d="M84.2,318.18a70.54,70.54,0,0,1-12-9.58l3.7-3.67-5.09,2.23a46.68,46.68,0,0,1-3.19-3.81l3.7-4-5.21,1.91c-.75-1.12-1.42-2.24-2-3.35l7-4.71-8.83.81a35.11,35.11,0,0,1-2.14-7.91h0l9.47-4.77-9.82.82c0-.71,0-1.41,0-2.11l5.47-1.15L59.83,278a39.9,39.9,0,0,1,.76-5.09l8.17-.3-7.5-2.34a42.2,42.2,0,0,1,6.2-12.95Z" style="fill:#37474f"></path><path d="M68.52,316.27l.57-4.73-2.62,4.23h0c-.76-.2-1.52-.41-2.29-.65l1-3.44L63,314.74c-1.24-.4-2.48-.85-3.71-1.36l1.86-4.27-4,3.35a36.34,36.34,0,0,1-6.47-3.85l4.43-6L48.74,307a24.06,24.06,0,0,1-4-4.58l4.61-5-5.81,3.06a23.15,23.15,0,0,1-1.33-3l7.37-5.75-8.44,1.58a25.93,25.93,0,0,1-.35-4.41L46.65,287l-5.8-.29a41.73,41.73,0,0,1,2-9.95s16.65,30.94,41.36,41.38A77.16,77.16,0,0,1,68.52,316.27Z" style="fill:#455a64"></path><path d="M74.31,324.76,72.8,323l.9,2.06c-.58.22-1.16.42-1.72.59L70.6,323,70.54,326a18.72,18.72,0,0,1-2.48.39l-.75-4.63-1.15,4.71a18.72,18.72,0,0,1-5.24-.82L60.79,322l-1.13,3.21a21.7,21.7,0,0,1-2-.9l1.3-4.27-2.78,3.45a26.14,26.14,0,0,1-3.26-2.35l1.43-2.74-2.14,2.13-1-1,1-1.57-1.66.94a30.74,30.74,0,0,1-4-5.14c13.89,8.12,37.77,4.37,37.77,4.37A34.64,34.64,0,0,1,74.31,324.76Z" style="fill:#37474f"></path><path d="M108.16,329.75,107.08,328l.26,2.05a16.53,16.53,0,0,1-2.28.56l-.63-3.34-.52,3.51a15.86,15.86,0,0,1-3.57,0l-.31-3.37-1.44,3.05a16.63,16.63,0,0,1-2.34-.75l.73-2.81-1.67,2.4a18,18,0,0,1-1.78-.94l1.14-3.44-3,2.21c-.58-.42-1.15-.88-1.73-1.39l1.24-1.76-1.92,1.15a40.26,40.26,0,0,1-5.77-6.87s17.58,8.8,30.46,8.07A18.5,18.5,0,0,1,108.16,329.75Z" style="fill:#455a64"></path><path d="M81.32,332.85l-2.68-1.58,2,2.69A13,13,0,0,1,79,336l-2.23-1.25,1.52,1.93a11.56,11.56,0,0,1-1,.77L74.58,335,76,338.32a13.65,13.65,0,0,1-3.51,1.31l-1.74-2.24.49,2.45a16.81,16.81,0,0,1-1.69.15l-1-2.36,0,2.36a19.1,19.1,0,0,1-5.43-.86c12.66-5,21-19.59,21-19.59C84.07,325.52,83,329.81,81.32,332.85Z" style="fill:#455a64"></path><path d="M92.13,326.05a5.06,5.06,0,1,1-5.24-4.87A5.07,5.07,0,0,1,92.13,326.05Z" style="fill:#4DABBA"></path><path d="M92.13,326.05a5.06,5.06,0,1,1-5.24-4.87A5.07,5.07,0,0,1,92.13,326.05Z" style="opacity:0.4"></path><path d="M87.6,321.72a5.06,5.06,0,1,1-5.24-4.87A5.06,5.06,0,0,1,87.6,321.72Z" style="fill:#4DABBA"></path><path d="M87.6,321.72a5.06,5.06,0,1,1-5.24-4.87A5.06,5.06,0,0,1,87.6,321.72Z" style="opacity:0.30000000000000004"></path><path d="M92.62,320.62a5.06,5.06,0,1,1-5.24-4.87A5,5,0,0,1,92.62,320.62Z" style="fill:#4DABBA"></path><path d="M92.62,320.62a5.06,5.06,0,1,1-5.24-4.87A5,5,0,0,1,92.62,320.62Z" style="opacity:0.2"></path><path d="M412.82,319.2A205.77,205.77,0,0,1,398.73,390c-8.4,21.13-62.1,43-76.84,59.69h24.52s57.22-40.85,61.9-59.21c10.42-40.94,6.36-71.9,6.36-71.9Z" style="fill:#4DABBA"></path><path d="M412.82,319.2A205.77,205.77,0,0,1,398.73,390c-8.4,21.13-62.1,43-76.84,59.69h24.52s57.22-40.85,61.9-59.21c10.42-40.94,6.36-71.9,6.36-71.9Z" style="opacity:0.30000000000000004"></path><path d="M363.29,437l-.55.44-2.91,0c-2,0-4.09-.09-6.12-.18,2-.1,4.08-.14,6.12-.18Z" style="fill:#4DABBA"></path><path d="M358.8,429.93c-1,.06-2,.08-3.05.13l-3.06.05c-1.31,0-2.63,0-3.95.05.25-.15.49-.29.73-.45,1.07,0,2.14,0,3.22.05l3.06.06C356.77,429.86,357.79,429.88,358.8,429.93Z" style="fill:#4DABBA"></path><path d="M351.93,431.5l-3.06.12-2.57.06.53-.34,2,.05Z" style="fill:#4DABBA"></path><path d="M395.23,409a3.07,3.07,0,0,1-.25.26c-1.22,0-2.43-.07-3.65-.12C392.62,409.08,393.93,409.05,395.23,409Z" style="fill:#4DABBA"></path><path d="M399.15,404.78c-.11.12-.23.26-.33.39l-.92,0c-2,0-4.07-.08-6.11-.18,2-.09,4.07-.13,6.11-.17Z" style="fill:#4DABBA"></path><path d="M409.5,385.6l-.06.26c-1.23,0-2.47-.07-3.71-.13C407,385.68,408.24,385.63,409.5,385.6Z" style="fill:#4DABBA"></path><path d="M412.07,366.86c-1,.05-2,.07-3.05.11l-2.81.06.09-.34,2.72.06C410,366.78,411.06,366.81,412.07,366.86Z" style="fill:#4DABBA"></path><path d="M414.9,349.81a.61.61,0,0,0,0,.14l-1.83-.07C413.67,349.85,414.29,349.82,414.9,349.81Z" style="fill:#4DABBA"></path><path d="M409.74,364.56c-1,.05-2,.08-2.93.11a1.42,1.42,0,0,1,.05-.22C407.82,364.49,408.78,364.51,409.74,364.56Z" style="fill:#4DABBA"></path><path d="M394.86,290.75l6.26.05L395,293.12a24.14,24.14,0,0,0,2.11,8l6.57-1.16-5.32,3.54A24.93,24.93,0,0,0,400,306l3.9-.86-2.67,2.4a34.65,34.65,0,0,0,4.14,4l3.59-2.42-2.52,3.27a52.62,52.62,0,0,0,9.55,5.78l-13.8-48.51a40.42,40.42,0,0,0-5,9.32l2.6.6-3.09.75a34.66,34.66,0,0,0-1,3.35l6.28.9-6.83,2A28.69,28.69,0,0,0,394.86,290.75Z" style="fill:#455a64"></path><path d="M380.53,310.29l2.9-2.13-2.09,3.4a19.48,19.48,0,0,0,3.31,3.63l3.84-4.29-1.7,5.87a19.65,19.65,0,0,0,2.54,1.35l2.61-3.13-.81,3.86A26.12,26.12,0,0,0,396,320l2.48-6,.15,6.23c.85.06,1.74.09,2.66.08l1-4.07,1.28,4a61.09,61.09,0,0,0,12.25-2.16l-38.22-16.64A21.51,21.51,0,0,0,380.53,310.29Z" style="fill:#37474f"></path><path d="M415.8,318.18a70.54,70.54,0,0,0,12.05-9.58l-3.7-3.67,5.09,2.23a46.68,46.68,0,0,0,3.19-3.81l-3.7-4,5.21,1.91c.75-1.12,1.42-2.24,2-3.35l-7-4.71,8.83.81a35.11,35.11,0,0,0,2.14-7.91h0l-9.47-4.77,9.82.82c0-.71,0-1.41,0-2.11l-5.47-1.15,5.37-.81a39.9,39.9,0,0,0-.76-5.09l-8.17-.3,7.5-2.34a42.2,42.2,0,0,0-6.2-12.95Z" style="fill:#37474f"></path><path d="M431.48,316.27l-.57-4.73,2.62,4.23h0c.76-.2,1.52-.41,2.29-.65l-1.05-3.44,2.27,3.06c1.24-.4,2.48-.85,3.71-1.36l-1.86-4.27,4,3.35a36.34,36.34,0,0,0,6.47-3.85l-4.43-6,6.37,4.42a24.06,24.06,0,0,0,4-4.58l-4.61-5,5.81,3.06a23.15,23.15,0,0,0,1.33-3l-7.37-5.75,8.44,1.58a25.93,25.93,0,0,0,.35-4.41L453.35,287l5.8-.29a41.73,41.73,0,0,0-2-9.95s-16.65,30.94-41.36,41.38A77.16,77.16,0,0,0,431.48,316.27Z" style="fill:#455a64"></path><path d="M425.69,324.76,427.2,323l-.9,2.06c.58.22,1.16.42,1.72.59L429.4,323l.06,2.94a18.72,18.72,0,0,0,2.48.39l.75-4.63,1.15,4.71a18.72,18.72,0,0,0,5.24-.82l.13-3.65,1.13,3.21a21.7,21.7,0,0,0,2-.9l-1.3-4.27,2.78,3.45a26.14,26.14,0,0,0,3.26-2.35l-1.43-2.74,2.14,2.13,1-1-1-1.57,1.66.94a30.74,30.74,0,0,0,4-5.14c-13.89,8.12-37.77,4.37-37.77,4.37A34.64,34.64,0,0,0,425.69,324.76Z" style="fill:#37474f"></path><path d="M391.84,329.75l1.08-1.76-.26,2.05a16.53,16.53,0,0,0,2.28.56l.63-3.34.52,3.51a15.86,15.86,0,0,0,3.57,0l.31-3.37,1.44,3.05a16.63,16.63,0,0,0,2.34-.75l-.73-2.81,1.67,2.4a18,18,0,0,0,1.78-.94l-1.14-3.44,3,2.21c.58-.42,1.15-.88,1.73-1.39l-1.24-1.76,1.92,1.15a40.26,40.26,0,0,0,5.77-6.87S398.91,327,386,326.28A18.5,18.5,0,0,0,391.84,329.75Z" style="fill:#455a64"></path><path d="M418.68,332.85l2.68-1.58-2,2.69A13,13,0,0,0,421,336l2.23-1.25-1.52,1.93a11.56,11.56,0,0,0,1,.77l2.76-2.49L424,338.32a13.65,13.65,0,0,0,3.51,1.31l1.74-2.24-.49,2.45a16.81,16.81,0,0,0,1.69.15l1-2.36,0,2.36a19.1,19.1,0,0,0,5.43-.86c-12.66-5-21-19.59-21-19.59C415.93,325.52,417,329.81,418.68,332.85Z" style="fill:#455a64"></path><path d="M407.87,326.05a5.06,5.06,0,1,0,5.24-4.87A5.07,5.07,0,0,0,407.87,326.05Z" style="fill:#4DABBA"></path><path d="M407.87,326.05a5.06,5.06,0,1,0,5.24-4.87A5.07,5.07,0,0,0,407.87,326.05Z" style="opacity:0.4"></path><path d="M412.4,321.72a5.06,5.06,0,1,0,5.24-4.87A5.06,5.06,0,0,0,412.4,321.72Z" style="fill:#4DABBA"></path><path d="M412.4,321.72a5.06,5.06,0,1,0,5.24-4.87A5.06,5.06,0,0,0,412.4,321.72Z" style="opacity:0.30000000000000004"></path><path d="M407.38,320.62a5.06,5.06,0,1,0,5.24-4.87A5,5,0,0,0,407.38,320.62Z" style="fill:#4DABBA"></path><path d="M407.38,320.62a5.06,5.06,0,1,0,5.24-4.87A5,5,0,0,0,407.38,320.62Z" style="opacity:0.2"></path></g><g id="freepik--Plane--inject-40"><g style="opacity:0.6000000000000001"><polygon points="233.56 73.83 52.12 112.72 214.94 64.67 233.56 73.83" style="fill:#ebebeb"></polygon><path d="M208.24,85.49c-9.65,2.45-19.36,4.61-29.08,6.66-4.86,1-9.73,2-14.6,3L149.93,98l-14.66,2.67c-4.9.84-9.79,1.73-14.7,2.51-9.8,1.62-19.63,3.14-29.51,4.36,9.65-2.45,19.35-4.61,29.08-6.66,4.86-1.05,9.73-2,14.6-3L149.37,95,164,92.37c4.89-.84,9.78-1.73,14.69-2.51C188.53,88.24,198.36,86.72,208.24,85.49Z" style="fill:#ebebeb"></path><path d="M139.52,82.38q-9.11,3.41-18.34,6.46c-6.14,2.06-12.32,4-18.5,5.93s-12.39,3.76-18.63,5.51-12.49,3.44-18.8,5q9.12-3.42,18.34-6.47c6.14-2.06,12.32-4,18.5-5.93s12.4-3.75,18.63-5.51S133.22,83.92,139.52,82.38Z" style="fill:#ebebeb"></path></g><path d="M238.14,75.26c-.35-.4-5.21-3.8-5.57-4.05l.83-.14S237.84,74.84,238.14,75.26Z" style="fill:#4DABBA"></path><path d="M238.14,75.26c-.35-.4-5.21-3.8-5.57-4.05l.83-.14S237.84,74.84,238.14,75.26Z" style="fill:#fff;opacity:0.5"></path><path d="M238.16,75.29h0c0,.09-.37.16-.74.21h0a3,3,0,0,1-1.05,0c-.1-.07-3.61-1.82-5.76-2.9l-.08,0h0l-.3-.15L229.3,72l-.34-.17,3.61-.62,3.3,2.33.14.11.4.28a19.63,19.63,0,0,1,1.73,1.33v0Z" style="fill:#4DABBA"></path><g style="opacity:0.1"><path d="M238.16,75.29h0c0,.09-.37.16-.74.21h0a3,3,0,0,1-1.05,0c-.1-.07-3.7-1.87-5.84-2.94.35.17,5,2.39,5.9,1.33a19.63,19.63,0,0,1,1.73,1.33v0Z"></path></g><path d="M285.71,79.25h0c0,.49-2.66.64-3,.54s-29.35-11.51-29.35-11.51L264,64.06l.31.22.13.09c2,1.36,7.83,5.43,12.95,9l.31.22.4.28C281.64,76.35,284.72,78.51,285.71,79.25Z" style="fill:#4DABBA"></path><path d="M285.71,79.25c-2.59-1.93-19.5-13.65-21.72-15.19l1.35-.53s19.7,15,20.3,15.58A.21.21,0,0,1,285.71,79.25Z" style="fill:#4DABBA"></path><path d="M285.71,79.25c-2.59-1.93-19.5-13.65-21.72-15.19l1.35-.53s19.7,15,20.3,15.58A.21.21,0,0,1,285.71,79.25Z" style="fill:#fff;opacity:0.5"></path><g style="opacity:0.5"><path d="M285.71,79.25h0c0,.49-2.66.64-3,.54s-29.35-11.51-29.35-11.51L264,64.06s-2.63,3,3.62,7.65c4.26,3.16,8.8,3.82,10.48,2.16C281.64,76.35,284.72,78.51,285.71,79.25Z" style="opacity:0.1"></path></g><path d="M261.57,72c-.83.4-1.72.71-1.79-.11,0-.34.24-.71,1.56-1.34.31-.15,1.07-.48,1.3.2S261.88,71.87,261.57,72Z" style="fill:#4DABBA"></path><path d="M261.57,72c-.83.4-1.72.71-1.79-.11,0-.34.24-.71,1.56-1.34.31-.15,1.07-.48,1.3.2S261.88,71.87,261.57,72Z" style="opacity:0.1"></path><path d="M268.28,74.77c-.82.4-1.71.71-1.78-.11,0-.34.24-.71,1.56-1.34.31-.15,1.07-.48,1.29.2S268.59,74.62,268.28,74.77Z" style="fill:#4DABBA"></path><path d="M268.28,74.77c-.82.4-1.71.71-1.78-.11,0-.34.24-.71,1.56-1.34.31-.15,1.07-.48,1.29.2S268.59,74.62,268.28,74.77Z" style="opacity:0.1"></path><path d="M275,77.52c-.82.4-1.72.71-1.78-.12,0-.33.24-.7,1.56-1.33.31-.15,1.07-.49,1.29.2S275.31,77.37,275,77.52Z" style="fill:#4DABBA"></path><path d="M275,77.52c-.82.4-1.72.71-1.78-.12,0-.33.24-.7,1.56-1.33.31-.15,1.07-.49,1.29.2S275.31,77.37,275,77.52Z" style="opacity:0.1"></path><path d="M272.81,70.3c-.81,1.43-2.65,2-3.81,2.42-3.09,1.23-5.33,1.93-6.44-.88a3.42,3.42,0,0,1-.24-1c-.18-2.12,2-3.18,3.12-3.76h0c1.34-.71,2.29-1.17,3-1.47a5.46,5.46,0,0,1,2.2-.56c.62,0,2,.13,2.5,2.72A3.71,3.71,0,0,1,272.81,70.3Z" style="fill:#4DABBA"></path><path d="M272.84,68.28c0,1.58-1,2.86-2.2,2.86s-2.2-1.28-2.2-2.86,1-2.85,2.2-2.85S272.84,66.71,272.84,68.28Z" style="fill:#263238"></path><path d="M272.59,68.28a2,2,0,1,1-1.95-2.52A2.28,2.28,0,0,1,272.59,68.28Z" style="fill:#455a64"></path><path d="M226.72,67.53l-.51.18-1.15.42-4-1.71c-3.85-1.66-8.41-3.6-9.28-3.89l.11,0,.1,0,.13,0,.08,0,.3.1.31.1.88.29.29.1.28.09.16,0,.47.16.32.11L219.32,65l.39.13,1.52.51,2.63.89.37.13,1.14.38h0l.29.09.13,0,.07,0Z" style="fill:#4DABBA"></path><path d="M226.72,67.53l-.51.18-1.15.42-4-1.71c-3.85-1.66-8.41-3.6-9.28-3.89l.11,0,.1,0,.13,0,.08,0,.3.1.31.1.88.29.29.1.28.09.16,0,.47.16.32.11L219.32,65l.39.13,1.52.51,2.63.89.37.13,1.14.38h0l.29.09.13,0,.07,0Z" style="fill:#fff;opacity:0.5"></path><path d="M225.06,68.13,222,69.25s-6.87-3.19-11-5.18l0,0-.06,0-1.18-.58a9.29,9.29,0,0,1-1.7-.94,8.65,8.65,0,0,1,3.68,0h0l.07,0c.84.28,5.13,2.11,8.89,3.72l.08,0,.31.13Z" style="fill:#4DABBA"></path><g style="opacity:0.1"><path d="M225.06,68.13,222,69.25s-6.87-3.19-11-5.18c.68.28,7.63,3.35,9.35,2.92a1,1,0,0,0,.73-.57Z"></path></g><path d="M233,63.75l-7.46,3.59s.07-6.4.13-11c0-.16,0-.31,0-.47v-.37c0-1.58,0-2.85,0-3.42,0-1.85.22-2.23.71-1.93a22.68,22.68,0,0,1,3.33,3c.54.7,1.73,4.9,2.5,7.79a.19.19,0,0,1,0,.07c.05.17.09.33.13.49C232.74,62.83,233,63.75,233,63.75Z" style="fill:#4DABBA"></path><g style="opacity:0.1"><path d="M233,63.75l-7.46,3.59s.07-6.4.13-11c1.1,2.45,3.27,5.8,6.75,5.2C232.74,62.83,233,63.75,233,63.75Z"></path></g><path d="M220.29,71.25c-.77-1.92,2.5-3.67,6.2-5.33S266.7,48.16,272,46.72s11.46.53,12.5,3.56c1.56,4.53-5,8.33-28.67,18.14-3.1,1.28-17,4.61-24.76,4.63C222.73,73.08,220.67,72.2,220.29,71.25Z" style="fill:#4DABBA"></path><path d="M220.29,71.25c-.77-1.92,2.5-3.67,6.2-5.33S266.7,48.16,272,46.72s11.46.53,12.5,3.56c1.56,4.53-5,8.33-28.67,18.14-3.1,1.28-17,4.61-24.76,4.63C222.73,73.08,220.67,72.2,220.29,71.25Z" style="fill:#fff;opacity:0.5"></path><path d="M255.82,68.42c-3.1,1.28-17,4.61-24.76,4.63-8.33,0-10.39-.85-10.77-1.8s.3-2,1.59-2.88a1.26,1.26,0,0,0,.1.56c.35.86,2.21,1.67,9.77,1.64,7.08,0,17.25-5.75,20.06-6.92,21.46-8.89,29.84-9.63,28.42-13.75-.62-1.79-3.22-3.17-6.29-3.55,4.76-.57,9.63,1.27,10.55,3.93C286.05,54.81,279.47,58.61,255.82,68.42Z" style="opacity:0.1"></path><polygon points="231.87 64.91 232.7 64.55 232.7 65.78 231.87 66.15 231.87 64.91" style="fill:#455a64"></polygon><polygon points="233.4 64.25 234.29 63.87 234.29 65.1 233.4 65.49 233.4 64.25" style="fill:#455a64"></polygon><polygon points="234.98 63.56 235.88 63.18 235.88 64.41 234.98 64.8 234.98 63.56" style="fill:#455a64"></polygon><polygon points="236.57 62.88 237.47 62.49 237.47 63.72 236.57 64.11 236.57 62.88" style="fill:#455a64"></polygon><polygon points="238.16 62.19 239.05 61.8 239.05 63.04 238.16 63.42 238.16 62.19" style="fill:#455a64"></polygon><polygon points="239.75 61.5 240.64 61.12 240.64 62.35 239.75 62.74 239.75 61.5" style="fill:#455a64"></polygon><polygon points="241.33 60.82 242.23 60.43 242.23 61.66 241.33 62.05 241.33 60.82" style="fill:#455a64"></polygon><polygon points="242.92 60.13 243.81 59.74 243.81 60.98 242.92 61.36 242.92 60.13" style="fill:#455a64"></polygon><polygon points="244.51 59.44 245.4 59.05 245.4 60.29 244.51 60.68 244.51 59.44" style="fill:#455a64"></polygon><polygon points="246.09 58.76 246.99 58.37 246.99 59.6 246.09 59.99 246.09 58.76" style="fill:#455a64"></polygon><polygon points="247.68 58.07 248.58 57.68 248.58 58.91 247.68 59.3 247.68 58.07" style="fill:#455a64"></polygon><polygon points="249.27 57.38 250.16 56.99 250.16 58.23 249.27 58.62 249.27 57.38" style="fill:#455a64"></polygon><polygon points="250.86 56.69 251.75 56.31 251.75 57.54 250.86 57.93 250.86 56.69" style="fill:#455a64"></polygon><polygon points="252.44 56.01 253.34 55.62 253.34 56.85 252.44 57.24 252.44 56.01" style="fill:#455a64"></polygon><polygon points="254.03 55.32 254.93 54.93 254.93 56.17 254.03 56.55 254.03 55.32" style="fill:#455a64"></polygon><polygon points="255.62 54.63 256.51 54.24 256.51 55.48 255.62 55.87 255.62 54.63" style="fill:#455a64"></polygon><polygon points="257.2 53.95 258.1 53.56 258.1 54.79 257.2 55.18 257.2 53.95" style="fill:#455a64"></polygon><polygon points="258.79 53.26 259.69 52.87 259.69 54.1 258.79 54.49 258.79 53.26" style="fill:#455a64"></polygon><polygon points="260.38 52.57 261.28 52.18 261.28 53.42 260.38 53.81 260.38 52.57" style="fill:#455a64"></polygon><polygon points="261.97 51.88 262.86 51.5 262.86 52.73 261.97 53.12 261.97 51.88" style="fill:#455a64"></polygon><polygon points="263.56 51.2 264.45 50.81 264.45 52.04 263.56 52.43 263.56 51.2" style="fill:#455a64"></polygon><polygon points="266.04 50.12 266.04 51.36 265.14 51.74 265.14 50.51 266.04 50.12" style="fill:#455a64"></polygon><polygon points="267.63 49.44 267.63 50.67 266.73 51.06 266.73 49.82 267.63 49.44" style="fill:#455a64"></polygon><polygon points="269.21 48.75 269.21 49.98 268.32 50.37 268.32 49.14 269.21 48.75" style="fill:#455a64"></polygon><polygon points="270.8 48.06 270.8 49.3 269.9 49.68 269.9 48.45 270.8 48.06" style="fill:#455a64"></polygon><path d="M275,47.56a4.37,4.37,0,0,1,1.66-.78v.82Z" style="fill:#455a64"></path><path d="M278.56,46.59v1.13c-.42,0-.83-.06-1.25-.08v-1A6.51,6.51,0,0,1,278.56,46.59Z" style="fill:#455a64"></path><path d="M282.55,48.19c-.35,0-.67-.07-1-.11s-.64-.1-.95-.13c-.46-.07-.91-.12-1.36-.16V46.66a6.13,6.13,0,0,1,1.59.43,5.23,5.23,0,0,1,.91.47,3.93,3.93,0,0,1,.42.29C282.3,48,282.43,48.07,282.55,48.19Z" style="fill:#455a64"></path><path d="M254,58.24,243.51,63.3s-16.72-9-28.72-15.51l0,0h0c-6.41-3.5-11.3-6.22-11.22-6.32.2-.27,3.42-.24,4.7-.07a1.9,1.9,0,0,1,.36.07c.54.15,19.46,7.16,32.71,12.07Z" style="fill:#4DABBA"></path><g style="opacity:0.1"><path d="M254,58.24,243.51,63.3s-16.72-9-28.72-15.51c.94.47,22.45,11.31,25.26,9.68,1.06-.61,1.34-2.2,1.26-3.95Z"></path></g><path d="M255.57,57.54l-3.13,1.51c-8-3.35-41.24-16.5-44-17.6a.32.32,0,0,0-.09,0l-.07,0h0a1.9,1.9,0,0,1,.36.07C209.44,41.68,255.57,57.54,255.57,57.54Z" style="fill:#4DABBA"></path><path d="M255.57,57.54l-3.13,1.51c-8-3.35-41.24-16.5-44-17.6a.32.32,0,0,0-.09,0l-.07,0h0a1.9,1.9,0,0,1,.36.07C209.44,41.68,255.57,57.54,255.57,57.54Z" style="fill:#fff;opacity:0.5"></path><path d="M233,57.79c-1,.5-2.14.89-2.22-.15,0-.42.29-.87,1.95-1.67.38-.19,1.33-.6,1.61.26S233.42,57.6,233,57.79Z" style="fill:#4DABBA"></path><path d="M233,57.79c-1,.5-2.14.89-2.22-.15,0-.42.29-.87,1.95-1.67.38-.19,1.33-.6,1.61.26S233.42,57.6,233,57.79Z" style="opacity:0.1"></path><path d="M224.13,53.29c-1,.5-2.15.89-2.23-.14,0-.43.3-.88,1.95-1.68.39-.18,1.34-.6,1.62.26S224.52,53.1,224.13,53.29Z" style="fill:#4DABBA"></path><path d="M224.13,53.29c-1,.5-2.15.89-2.23-.14,0-.43.3-.88,1.95-1.68.39-.18,1.34-.6,1.62.26S224.52,53.1,224.13,53.29Z" style="opacity:0.1"></path><path d="M215.2,48.74c-1,.46-2,.83-2.08-.13,0-.4.28-.82,1.82-1.56.36-.18,1.25-.56,1.51.24S215.56,48.56,215.2,48.74Z" style="fill:#4DABBA"></path><path d="M215.2,48.74c-1,.46-2,.83-2.08-.13,0-.4.28-.82,1.82-1.56.36-.18,1.25-.56,1.51.24S215.56,48.56,215.2,48.74Z" style="opacity:0.1"></path><path d="M246.32,56.77c-.81,1.44-2.65,2-3.81,2.42-3.09,1.24-5.33,1.93-6.44-.88a3.42,3.42,0,0,1-.24-1c-.18-2.12,2-3.17,3.12-3.76h0c1.34-.71,2.29-1.17,3-1.46a5.53,5.53,0,0,1,2.2-.57c.63,0,2,.14,2.5,2.72A3.71,3.71,0,0,1,246.32,56.77Z" style="fill:#4DABBA"></path><ellipse cx="244.15" cy="54.76" rx="2.2" ry="2.85" style="fill:#263238"></ellipse><path d="M246.1,54.76a2,2,0,1,1-1.95-2.52A2.29,2.29,0,0,1,246.1,54.76Z" style="fill:#455a64"></path><path d="M212.84,62.86l-.31-.1Z" style="fill:#4DABBA"></path></g><g id="freepik--Sign--inject-40"><polygon points="431.61 183.52 421.01 190.48 394.64 190.22 399.26 174.88 425.81 174.54 431.61 183.52" style="fill:#455a64"></polygon><polygon points="425.81 174.54 423.56 173.42 397.77 173.69 393.22 189.79 394.64 190.22 399.26 174.88 425.81 174.54" style="fill:#37474f"></polygon><polygon points="441.79 220.08 431.43 224.89 388.4 209.55 393.78 194.46 436.81 209.8 441.79 220.08" style="fill:#4DABBA"></polygon><polygon points="436.81 209.8 438.58 211.73 443.31 221.28 431.76 226.58 388.31 210.97 388.4 209.55 431.43 224.89 441.79 220.08 436.81 209.8" style="fill:#4DABBA"></polygon><polygon points="436.81 209.8 438.58 211.73 443.31 221.28 431.76 226.58 388.31 210.97 388.4 209.55 431.43 224.89 441.79 220.08 436.81 209.8" style="opacity:0.1"></polygon><polygon points="339.73 178.13 345.99 187.68 390.65 197.33 394.02 181.67 349.37 172.01 339.73 178.13" style="fill:#263238"></polygon><polygon points="339.73 178.13 345.99 187.68 390.65 197.33 389.68 199.92 345.99 190.43 339.89 181.34 339.73 178.13" style="fill:#37474f"></polygon><path d="M340.71,383.27l-12-3.6L398.12,159.5c.88-2.79,2.91-4.61,4.58-4.11l.27.08c1.67.51,2.35,3.15,1.54,5.95Z" style="fill:#4DABBA"></path><path d="M340.71,383.27l-12-3.6L398.12,159.5c.88-2.79,2.91-4.61,4.58-4.11l.27.08c1.67.51,2.35,3.15,1.54,5.95Z" style="opacity:0.4"></path><g style="opacity:0.30000000000000004;mix-blend-mode:multiply"><path d="M399.2,163.61q-4,12.06-7.87,24.16c-2.6,8.06-5.17,16.13-7.64,24.23s-4.88,16.22-7.13,24.39l-1.65,6.13-1.54,6.16c-.95,4.11-1.79,8.27-2.88,12.38-2.19,8.2-5,16.2-7.91,24.16l-8.82,23.83a370.93,370.93,0,0,0-14.58,48.63c1.72-8.3,3.83-16.51,6.24-24.63s5.16-16.14,8-24.11l8.75-23.86c2.87-8,5.66-16,7.82-24.15,1.06-4.08,1.92-8.23,2.89-12.36l1.57-6.16,1.66-6.14c2.29-8.16,4.72-16.27,7.23-24.37Q390.87,187.63,399.2,163.61Z"></path><path d="M401.09,159.08l-2.35,9.86-2.51,9.83c-1.7,6.54-3.44,13.07-5.27,19.58s-3.8,13-5.87,19.42-4.23,12.84-6.8,19.1l1.74-4.76,1.63-4.8c1.07-3.2,2.13-6.41,3.11-9.64,2-6.45,3.89-12.95,5.71-19.45s3.68-13,5.43-19.54Z"></path><path d="M346.74,334.23c1.38-3,2.71-6.06,4-9.11s2.63-6.1,3.91-9.17c2.55-6.13,5-12.31,7.24-18.55s4.5-12.5,6.34-18.87c.48-1.59.94-3.19,1.33-4.8s.86-3.21,1.18-4.84.71-3.24,1-4.87l.74-4.92a108.44,108.44,0,0,1-3.95,19.52c-1.79,6.4-3.92,12.71-6.19,18.95s-4.8,12.4-7.41,18.51S349.66,328.26,346.74,334.23Z"></path><path d="M383.69,227.12q-2.2,5.46-4.3,11c-1.39,3.67-2.75,7.36-3.91,11.1a36.73,36.73,0,0,0-1.35,5.69,5,5,0,0,0,0,1.39.36.36,0,0,0,.09.19s0,0,.1,0a2.19,2.19,0,0,0,.45-.46,15.18,15.18,0,0,0,1.41-2.53,37,37,0,0,0,1.94-5.53,31.56,31.56,0,0,0,1.06-5.79,34.21,34.21,0,0,1-2.66,11.47,13.67,13.67,0,0,1-1.4,2.64,2.42,2.42,0,0,1-.58.57.52.52,0,0,1-.58,0,.79.79,0,0,1-.26-.45,5.68,5.68,0,0,1,0-1.54,36.44,36.44,0,0,1,1.33-5.78c1.19-3.76,2.56-7.45,4-11.1S382.05,230.69,383.69,227.12Z"></path><path d="M360.06,308.48c-2.87,7.4-5.8,14.77-8.94,22-.78,1.82-1.57,3.64-2.4,5.45s-1.75,3.56-2.56,5.36a73.71,73.71,0,0,0-4,11.14,38.45,38.45,0,0,0-1.13,5.79,8.94,8.94,0,0,0,.11,2.88,1.73,1.73,0,0,0,.66,1.09c.21.11.3.13.48,0a1.84,1.84,0,0,0,.48-.45,22,22,0,0,0,2.55-5.28c.68-1.85,1.27-3.74,1.79-5.65a48.17,48.17,0,0,0,1.25-5.79,14.15,14.15,0,0,0,.14-1.46,2.7,2.7,0,0,0-.19-1.36c-.09-.14-.29-.12-.47,0a2.12,2.12,0,0,0-.48.51,8.38,8.38,0,0,0-.75,1.26,35.77,35.77,0,0,0-2.07,5.54c-.28.95-.53,1.91-.73,2.88-.1.49-.18,1-.24,1.47a3.64,3.64,0,0,0,0,1.47,3.51,3.51,0,0,1-.07-1.48q.08-.74.21-1.47c.18-1,.41-1.94.66-2.9a34.7,34.7,0,0,1,2-5.62,10.05,10.05,0,0,1,.75-1.31,2.64,2.64,0,0,1,.54-.57.79.79,0,0,1,.41-.16.5.5,0,0,1,.44.2,2.91,2.91,0,0,1,.26,1.54c0,.5-.07,1-.13,1.49A50,50,0,0,1,347.4,351c-.51,1.92-1.09,3.82-1.76,5.7-.33.93-.69,1.86-1.1,2.77a12.48,12.48,0,0,1-1.47,2.64,2.16,2.16,0,0,1-.6.56.9.9,0,0,1-.48.13,1.26,1.26,0,0,1-.44-.16,2.16,2.16,0,0,1-.89-1.36,9.37,9.37,0,0,1-.13-3,32.23,32.23,0,0,1,1.14-5.87,72.8,72.8,0,0,1,4.14-11.18c.83-1.81,1.78-3.55,2.59-5.35s1.64-3.61,2.44-5.42Q355.55,319.49,360.06,308.48Z"></path><path d="M332,380.64q.87-4.18,1.83-8.36l1.95-8.33,2.07-8.3c.7-2.77,1.44-5.52,2.2-8.27-.58,2.8-1.19,5.58-1.83,8.36l-1.95,8.33-2.07,8.3C333.47,375.13,332.73,377.89,332,380.64Z"></path><path d="M335.12,381.59a23.88,23.88,0,0,0,2.52-6.52,19.44,19.44,0,0,0,.38-6.92,28,28,0,0,1,0-7.09,60.7,60.7,0,0,1,1.17-7c-.41,2.32-.67,4.66-.87,7a30.8,30.8,0,0,0,.15,7,17.65,17.65,0,0,1-.39,7.09A19.55,19.55,0,0,1,335.12,381.59Z"></path><path d="M357.8,316q-2.94,8.19-5.18,16.6c-.74,2.8-1.4,5.63-1.86,8.48s-.87,5.75-1.46,8.59-1.23,5.68-2.07,8.47a40.48,40.48,0,0,1-3.21,8.12,51,51,0,0,0-3.85,7.77,82.07,82.07,0,0,0-2.84,8.21,61.34,61.34,0,0,1,6.31-16.19,39.84,39.84,0,0,0,3.12-8.05q1.2-4.17,2.09-8.42c.6-2.84,1.08-5.69,1.53-8.56s1.19-5.69,2-8.49C353.88,326.94,355.75,321.44,357.8,316Z"></path><path d="M403.64,155.83q-1.08,5.14-2.29,10.26c-.79,3.42-1.65,6.81-2.5,10.21s-1.79,6.78-2.77,10.15-2,6.72-3.28,10c.55-1.67,1.05-3.34,1.52-5s.94-3.37,1.39-5.07c.9-3.38,1.8-6.77,2.65-10.16L401,166Z"></path></g></g><g id="freepik--World--inject-40"><path d="M449.72,471H50.28a203.62,203.62,0,0,1,14.54-24.57q2.61-3.8,5.4-7.48c.61-.81,1.24-1.64,1.87-2.44,1.26-1.62,2.55-3.22,3.85-4.8s2.65-3.14,4-4.69l2-2.29c1.37-1.53,2.78-3,4.2-4.52s2.87-3,4.34-4.4c.72-.73,1.47-1.44,2.22-2.16A218.69,218.69,0,0,1,119.14,392q5.14-3.6,10.52-6.91c1.19-.74,2.39-1.46,3.61-2.18,2.42-1.43,4.87-2.81,7.35-4.16l3-1.61,1.69-.86c.57-.29,1.14-.59,1.72-.87L148,375l.46-.22,2.81-1.36h0c1.2-.57,2.4-1.14,3.62-1.68,1-.45,2-.88,2.93-1.3s2-.85,2.94-1.25h0l.52-.22,2.45-1c1.31-.52,2.65-1.05,4-1.56l2-.76q7-2.61,14.34-4.77l1.83-.52a.16.16,0,0,0,.09,0l.54-.15q1.47-.42,2.94-.81l1.05-.27c1-.28,2-.54,3.05-.79,1.29-.32,2.58-.64,3.86-.93s2.37-.55,3.58-.81l.61-.12,2-.41.22-.05.41-.08.81-.16.09,0,.91-.17.12,0,1.74-.33H208c.54-.11,1.08-.2,1.63-.3l4.36-.72h.09c1.36-.2,2.72-.4,4.08-.58a7.9,7.9,0,0,1,.85-.11c1.2-.18,2.42-.32,3.62-.46l.44-.05c1.14-.14,2.26-.25,3.41-.36.69-.09,1.4-.16,2.1-.21.48-.05,1-.1,1.46-.12,1.08-.11,2.16-.19,3.26-.26l.39,0c1-.09,2.07-.16,3.11-.21,1.35-.07,2.68-.14,4-.18,1.07-.05,2.14-.09,3.21-.1.59,0,1.18,0,1.77,0,1.39,0,2.78,0,4.17,0q9.11,0,18,.67l3.3.28,1.61.16,1.66.16q2.32.25,4.62.54c1.72.21,3.43.45,5.14.7l3.22.49c3.22.53,6.41,1.11,9.57,1.76,2.11.44,4.2.9,6.29,1.39q4.69,1.11,9.3,2.4c2,.57,4.1,1.18,6.12,1.81a226.21,226.21,0,0,1,45.88,20,221.05,221.05,0,0,1,42.66,32q1.72,1.68,3.43,3.38c2.27,2.28,4.47,4.61,6.63,7s4.26,4.79,6.3,7.25h0a208.14,208.14,0,0,1,26,39.65Z" style="fill:#455a64"></path><g style="opacity:0.2"><path d="M290.09,370c-1.66,2.94-4.33,3.52-7.43,3.73s-6-1.37-9.28.58-6.61,12.51-10.95,13.1-12-9.38-13.62-12.32,3.72-9.2,1.19-12.12-7-2.36-14-2.94c-.44,0-.91-.06-1.41-.07-7.57-.2-21.87,2.18-21.3,4.58.16.68,2,1,4.6,1.12,7,.41,19.51-.14,20,3.56.61,5.09-17.14,13.69-20.22,12.91s-7.24-5.86-11.77-6.45-8.27,2.93-11.12,3.32a7.08,7.08,0,0,1-3.47-.74c-2.05-.79-4.37-1.9-7.08-1.41-4.33.77-5.37,4.3-7.64,5.67s-7.64,1.37-8.25,4.49c-.3,1.57,1.38,2.79,3.38,3.86s4.35,2,5.28,3c1.86,2-2.27,8.61-.41,10s13.42-8.23,16.3-10.57,5.37-12.52,11.56-12.33,8.25,10.18,10.32,11.15,6.61-2.34,13.41-1S239.73,406.6,241,410.89s4.13,8.62,1.66,10.38-13.63-1.18-15.06-3.91,7.42-6.85,6.8-7.82-5.78-2.36-8.45-.83-3.92,4.72-6.82,5.51-10.53-7.43-12.58-5.09,2,9.79,4.12,11.55,9.7,2.74,10.31,4.69-5.15,6.25-12.17,5.87-12.79-5.48-15.48-3.33-1.23,7.82-3.09,9.78-12,.59-16.92,5.66-7.23,12.71-12.18,17-7.21-1.17-13.82,4.89a18,18,0,0,0-4,5.74H71.83c0-.28,0-.56-.08-.84-1.22-11.74,3.1-24.06,11.77-34,0,0,1.24-6.46,2.47-10.56s27.86-20.54,31-25.23c1.29-2,1.73-5,2.19-8.34q5.14-3.6,10.52-6.91c1.19-.74,2.39-1.46,3.61-2.18,2.42-1.43,4.87-2.81,7.35-4.16l3-1.61,1.69-.86c.57-.29,1.14-.59,1.72-.87L148,375l.46-.22c.93-.47,1.87-.92,2.81-1.36h0L152,373c1.92-.91,3.87-1.78,5.83-2.63l2.94-1.26h0l.52-.22,2.45-1c1.31-.52,2.65-1.05,4-1.56l2-.76q7-2.61,14.34-4.77l1.83-.52a.16.16,0,0,0,.09,0l.54-.15q1.47-.42,2.94-.81l1.05-.27c1-.28,2-.54,3.05-.79,1.29-.32,2.58-.64,3.86-.93s2.37-.55,3.58-.81l.61-.12,2-.41.22-.05,1.22-.24.09,0,.91-.17.12,0,1.74-.33H208c.54-.11,1.08-.2,1.63-.3l4.36-.72h.09c1.36-.2,2.72-.4,4.08-.58a7.9,7.9,0,0,1,.85-.11c1.2-.18,2.42-.32,3.62-.46l.44-.05c1.14-.14,2.26-.25,3.41-.36.69-.09,1.4-.16,2.1-.21.48-.05,1-.1,1.46-.12,1.08-.11,2.16-.19,3.26-.26l.39,0c1-.09,2.07-.16,3.11-.21,1.35-.07,2.68-.14,4-.18,1.07-.05,2.14-.09,3.21-.1.59,0,1.18,0,1.77,0,1.39,0,2.78,0,4.17,0q9.11,0,18,.67c.21.28.42.53.62.78a.4.4,0,0,0,.1.12,18.2,18.2,0,0,0,3.93,3.61,40.51,40.51,0,0,0,9.38,4.3C289.89,363.57,291.75,367.09,290.09,370Z"></path><path d="M295.46,371.59c-1.08,2.46,3.92,3.33,6.81,4.89s5.15,2.54,6.81,0-.62-5.48-2.89-6.06S296.49,369.24,295.46,371.59Z"></path><path d="M334.46,394.47c1.9,1.9,5.16,1.56,7.43,4.3s1.44,7.43,4.33,8.8,4.95,0,5.16-1.95-4.13-6.85-3.71-7.83,6,1.37,7.22,4.31-1.24,7,1.65,7.82,2.27-2.74,3.51-3.52,3.92-.39,3.71-2.74-3.51-7.43-6.19-9.19-4.74-3.72-9.28-4.69-8.88-.2-11.15,1.56S333.28,393.3,334.46,394.47Z"></path><path d="M423.74,431.32a3.43,3.43,0,0,1-1.16,2.06c-4.34,2.94-9.5-7.23-15.48-9.18s-8.67-9.2-9.9-7.63-.83,3.71-2.69,6.25-4.54,2-5.78,6.85,5.78,13.88,4.13,16.82-3.71,1.95-7,1.76-2.68,2.54-7,1.36-.62-6.25-7.43-12.31-9.08-7.24-7.63-10-.62-6.64,2.47-7,5.57,3.92,7.63,5.09,4.75-2.35,5-5.48-7.23-7.43-9.91-9.86-2.89-11.26-1.86-13,4.13-1.17,5-5.47c.48-2.53-3.74-6.76-7.31-9.81A218.67,218.67,0,0,1,423.74,431.32Z"></path><path d="M449.72,471H386.35c-1.65-3.19-4.07-7.17-4.22-10.21-.21-3.9,3.91-3.73,11.76-9.21s9.9-5.08,15.89-3.13A90,90,0,0,0,423,452c3.43.57,8.06,8.87,9.6,8.82,0,0,.07,0,.09,0,1.44-.4,1.66-2.94,2.27-6.65a8.21,8.21,0,0,1,2.57-4.2A203.43,203.43,0,0,1,449.72,471Z"></path></g><path d="M272.92,352.47c-1.41.13-2.8.3-4.19.46-4.16.51-8.26,1.13-12.33,1.88A206.09,206.09,0,0,0,234.62,360c-5.67,1.67-11.25,3.57-16.7,5.7a207.81,207.81,0,0,0-26.61,12.6q-8.46,4.79-16.37,10.3c-1.09.76-2.16,1.53-3.22,2.31A194,194,0,0,0,107.18,471H50.28a203.62,203.62,0,0,1,14.54-24.57q2.61-3.8,5.4-7.48c.61-.81,1.24-1.64,1.87-2.44,1.26-1.62,2.55-3.22,3.85-4.8s2.65-3.14,4-4.69l2-2.29c1.37-1.53,2.78-3,4.2-4.52s2.87-3,4.34-4.4c.72-.73,1.47-1.44,2.22-2.16A218.69,218.69,0,0,1,119.14,392q5.14-3.6,10.52-6.91c1.19-.74,2.39-1.46,3.61-2.18,2.42-1.43,4.87-2.81,7.35-4.16l3-1.61,1.69-.86c.57-.29,1.14-.59,1.72-.87L148,375l.46-.22,2.81-1.36h0L152,373l2.9-1.33q2.91-1.32,5.87-2.55h0l3-1.22c1.31-.52,2.65-1.05,4-1.56l2-.76q7-2.59,14.34-4.77l1.83-.52a.16.16,0,0,0,.09,0l.54-.15q1.47-.42,2.94-.81l1.05-.27c1-.28,2-.54,3.05-.79,1.29-.32,2.58-.64,3.86-.93s2.37-.55,3.58-.81l.61-.12,2-.41.22-.05,1.22-.24.09,0,.91-.17.12,0,1.74-.33H208c.54-.11,1.08-.2,1.63-.3l4.36-.72h.09c1.36-.2,2.72-.4,4.08-.58a7.9,7.9,0,0,1,.85-.11c1.2-.18,2.42-.32,3.62-.46l.44-.05c1.14-.14,2.26-.25,3.41-.36.69-.09,1.4-.16,2.1-.21.48-.05,1-.1,1.46-.12,1.08-.11,2.16-.19,3.26-.26l.39,0c1-.09,2.07-.16,3.11-.21,1.35-.07,2.68-.14,4-.18,1.07-.05,2.14-.09,3.21-.1.59,0,1.18,0,1.77,0,1.39,0,2.78,0,4.17,0q9.11,0,18,.67l3.3.28Z" style="opacity:0.1"></path><path d="M449.72,471H438.35c-1.81-3.46-3.74-6.86-5.75-10.21q-2.24-3.78-4.67-7.46A210.32,210.32,0,0,0,414,434.63a215.68,215.68,0,0,0-16.84-18.05,219.78,219.78,0,0,0-26.84-21.89q-7.59-5.28-15.69-9.93a229.16,229.16,0,0,0-82-28.22q-7.55-1.08-15.26-1.66c-.34,0-.67-.06-1-.07q-8.46-.63-17.11-.63A234.66,234.66,0,0,0,186,360.27l.54-.15q1.47-.42,2.94-.81l1.05-.27c1-.28,2-.54,3.05-.79,1.29-.32,2.58-.64,3.86-.93s2.37-.55,3.58-.81l.61-.12,2-.41.22-.05,1.22-.24.09,0,.91-.17.12,0,1.74-.33H208c.54-.11,1.08-.2,1.63-.3l4.36-.72h.09c1.36-.2,2.72-.4,4.08-.58a7.9,7.9,0,0,1,.85-.11c1.2-.18,2.42-.32,3.62-.46l.44-.05c1.14-.14,2.26-.25,3.41-.36.69-.09,1.4-.16,2.1-.21.48-.05,1-.1,1.46-.12,1.08-.11,2.16-.19,3.26-.26l.39,0c1-.09,2.07-.16,3.11-.21,1.35-.07,2.68-.14,4-.18,1.07-.05,2.14-.09,3.21-.1.59,0,1.18,0,1.77,0,1.39,0,2.78,0,4.17,0q9.11,0,18,.67l3.3.28,1.61.16,1.66.16q2.32.25,4.62.54c1.72.21,3.43.45,5.14.7l3.22.49c3.22.53,6.41,1.11,9.57,1.76,2.11.45,4.2.91,6.29,1.39q4.69,1.11,9.3,2.4c2,.57,4.1,1.18,6.12,1.81a226.21,226.21,0,0,1,45.88,20,221.05,221.05,0,0,1,42.66,32q1.72,1.68,3.43,3.38c2.27,2.28,4.47,4.61,6.63,7s4.26,4.79,6.3,7.25h0a208.14,208.14,0,0,1,26,39.65Z" style="fill:#fff;opacity:0.30000000000000004"></path></g><g id="freepik--Shadow--inject-40"><ellipse cx="250" cy="391.89" rx="105.32" ry="10.99" style="fill:#263238"></ellipse></g></svg>